<mxfile host="Electron" agent="Mozilla/5.0 (X11; Linux x86_64) AppleWebKit/537.36 (KHTML, like Gecko) draw.io/27.0.5 Chrome/134.0.6998.205 Electron/35.3.0 Safari/537.36" version="27.0.5">
  <diagram name="Page-1" id="5ZMi1GEKn5jcYbR5eF84">
    <mxGraphModel dx="806" dy="531" grid="1" gridSize="10" guides="1" tooltips="1" connect="1" arrows="1" fold="1" page="1" pageScale="1" pageWidth="850" pageHeight="1100" math="0" shadow="0">
      <root>
        <mxCell id="0" />
        <mxCell id="1" parent="0" />
        <mxCell id="N_Zva5gIrNRZ_EKkjsPN-3" value="&lt;font style=&quot;font-size: 24px;&quot;&gt;&lt;b&gt;High Level Architecture&lt;/b&gt;&lt;/font&gt;" style="text;html=1;align=center;verticalAlign=middle;whiteSpace=wrap;rounded=0;" vertex="1" parent="1">
          <mxGeometry x="20" y="110" width="310" height="60" as="geometry" />
        </mxCell>
        <mxCell id="N_Zva5gIrNRZ_EKkjsPN-4" value="" style="rounded=0;whiteSpace=wrap;html=1;fillColor=none;dashed=1;strokeColor=light-dark(#757070, #ededed);" vertex="1" parent="1">
          <mxGeometry x="10" y="210" width="150" height="510" as="geometry" />
        </mxCell>
        <mxCell id="N_Zva5gIrNRZ_EKkjsPN-5" value="&lt;font&gt;Sources&lt;/font&gt;" style="rounded=0;whiteSpace=wrap;html=1;strokeColor=none;fontSize=15;" vertex="1" parent="1">
          <mxGeometry x="55" y="190" width="60" height="30" as="geometry" />
        </mxCell>
        <mxCell id="N_Zva5gIrNRZ_EKkjsPN-6" value="" style="rounded=0;whiteSpace=wrap;html=1;fillColor=none;dashed=1;strokeColor=light-dark(#757070, #ededed);" vertex="1" parent="1">
          <mxGeometry x="180" y="210" width="490" height="510" as="geometry" />
        </mxCell>
        <mxCell id="N_Zva5gIrNRZ_EKkjsPN-7" value="&lt;font&gt;Data Warehouse&lt;/font&gt;" style="rounded=0;whiteSpace=wrap;html=1;strokeColor=none;fontSize=14;" vertex="1" parent="1">
          <mxGeometry x="330" y="190" width="170" height="30" as="geometry" />
        </mxCell>
        <mxCell id="N_Zva5gIrNRZ_EKkjsPN-8" value="" style="rounded=0;whiteSpace=wrap;html=1;fillColor=none;dashed=1;strokeColor=light-dark(#757070, #ededed);" vertex="1" parent="1">
          <mxGeometry x="690" y="210" width="130" height="510" as="geometry" />
        </mxCell>
        <mxCell id="N_Zva5gIrNRZ_EKkjsPN-9" value="Consume" style="rounded=0;whiteSpace=wrap;html=1;strokeColor=none;fontSize=14;" vertex="1" parent="1">
          <mxGeometry x="715" y="200" width="60" height="30" as="geometry" />
        </mxCell>
        <mxCell id="N_Zva5gIrNRZ_EKkjsPN-10" value="Bronze Layer" style="rounded=0;whiteSpace=wrap;html=1;fillColor=#ffe6cc;strokeColor=#d79b00;" vertex="1" parent="1">
          <mxGeometry x="190" y="230" width="150" height="30" as="geometry" />
        </mxCell>
        <mxCell id="N_Zva5gIrNRZ_EKkjsPN-11" value="" style="rounded=0;whiteSpace=wrap;html=1;" vertex="1" parent="1">
          <mxGeometry x="190" y="270" width="150" height="400" as="geometry" />
        </mxCell>
        <mxCell id="N_Zva5gIrNRZ_EKkjsPN-12" value="Silver Layer" style="rounded=0;whiteSpace=wrap;html=1;fillColor=#f5f5f5;strokeColor=#666666;fontColor=#333333;" vertex="1" parent="1">
          <mxGeometry x="350" y="230" width="150" height="30" as="geometry" />
        </mxCell>
        <mxCell id="N_Zva5gIrNRZ_EKkjsPN-13" value="" style="rounded=0;whiteSpace=wrap;html=1;" vertex="1" parent="1">
          <mxGeometry x="350" y="270" width="150" height="400" as="geometry" />
        </mxCell>
        <mxCell id="N_Zva5gIrNRZ_EKkjsPN-14" value="Gold Layer" style="rounded=0;whiteSpace=wrap;html=1;fillColor=#fff2cc;strokeColor=#d6b656;" vertex="1" parent="1">
          <mxGeometry x="510" y="230" width="150" height="30" as="geometry" />
        </mxCell>
        <mxCell id="N_Zva5gIrNRZ_EKkjsPN-15" value="" style="rounded=0;whiteSpace=wrap;html=1;" vertex="1" parent="1">
          <mxGeometry x="510" y="270" width="150" height="400" as="geometry" />
        </mxCell>
        <mxCell id="N_Zva5gIrNRZ_EKkjsPN-18" value="" style="image;aspect=fixed;html=1;points=[];align=center;fontSize=12;image=img/lib/azure2/general/Folder_Blank.svg;" vertex="1" parent="1">
          <mxGeometry x="50" y="367.71" width="59.5" height="48.29" as="geometry" />
        </mxCell>
        <mxCell id="N_Zva5gIrNRZ_EKkjsPN-19" value="" style="image;aspect=fixed;html=1;points=[];align=center;fontSize=12;image=img/lib/azure2/general/Files.svg;" vertex="1" parent="1">
          <mxGeometry x="90" y="400" width="18.29" height="20" as="geometry" />
        </mxCell>
        <mxCell id="N_Zva5gIrNRZ_EKkjsPN-20" value="&lt;font&gt;CRM&lt;/font&gt;&lt;div&gt;&lt;font&gt;&lt;br&gt;&lt;/font&gt;&lt;/div&gt;" style="rounded=0;whiteSpace=wrap;html=1;strokeColor=none;fontSize=15;" vertex="1" parent="1">
          <mxGeometry x="45" y="420" width="65" height="10" as="geometry" />
        </mxCell>
        <mxCell id="N_Zva5gIrNRZ_EKkjsPN-21" value="" style="image;aspect=fixed;html=1;points=[];align=center;fontSize=12;image=img/lib/azure2/general/Folder_Blank.svg;" vertex="1" parent="1">
          <mxGeometry x="50.5" y="450" width="59.5" height="48.29" as="geometry" />
        </mxCell>
        <mxCell id="N_Zva5gIrNRZ_EKkjsPN-22" value="" style="image;aspect=fixed;html=1;points=[];align=center;fontSize=12;image=img/lib/azure2/general/Files.svg;" vertex="1" parent="1">
          <mxGeometry x="91.71000000000001" y="490" width="18.29" height="20" as="geometry" />
        </mxCell>
        <mxCell id="N_Zva5gIrNRZ_EKkjsPN-23" value="ERP" style="rounded=0;whiteSpace=wrap;html=1;strokeColor=none;fontSize=15;" vertex="1" parent="1">
          <mxGeometry x="45" y="505" width="65" height="5" as="geometry" />
        </mxCell>
        <mxCell id="N_Zva5gIrNRZ_EKkjsPN-27" value="Object type : CSV files&lt;div&gt;Interface: Files in folder&lt;/div&gt;" style="rounded=0;whiteSpace=wrap;html=1;strokeColor=none;fontSize=12;" vertex="1" parent="1">
          <mxGeometry x="20" y="560" width="130" height="50" as="geometry" />
        </mxCell>
        <mxCell id="N_Zva5gIrNRZ_EKkjsPN-30" style="edgeStyle=orthogonalEdgeStyle;rounded=0;orthogonalLoop=1;jettySize=auto;html=1;exitX=0.5;exitY=1;exitDx=0;exitDy=0;entryX=0.673;entryY=0.933;entryDx=0;entryDy=0;entryPerimeter=0;" edge="1" parent="1" source="N_Zva5gIrNRZ_EKkjsPN-12" target="N_Zva5gIrNRZ_EKkjsPN-12">
          <mxGeometry relative="1" as="geometry" />
        </mxCell>
        <mxCell id="N_Zva5gIrNRZ_EKkjsPN-32" value="" style="html=1;verticalLabelPosition=bottom;align=center;labelBackgroundColor=#ffffff;verticalAlign=top;strokeWidth=2;strokeColor=#d79b00;shadow=0;dashed=0;shape=mxgraph.ios7.icons.data;fillColor=#ffe6cc;" vertex="1" parent="1">
          <mxGeometry x="240" y="290" width="60" height="60" as="geometry" />
        </mxCell>
        <mxCell id="N_Zva5gIrNRZ_EKkjsPN-51" value="" style="edgeStyle=orthogonalEdgeStyle;rounded=0;orthogonalLoop=1;jettySize=auto;html=1;" edge="1" parent="1" source="N_Zva5gIrNRZ_EKkjsPN-34" target="N_Zva5gIrNRZ_EKkjsPN-35">
          <mxGeometry relative="1" as="geometry" />
        </mxCell>
        <mxCell id="N_Zva5gIrNRZ_EKkjsPN-34" value="" style="html=1;verticalLabelPosition=bottom;align=center;labelBackgroundColor=#ffffff;verticalAlign=top;strokeWidth=2;strokeColor=#666666;shadow=0;dashed=0;shape=mxgraph.ios7.icons.data;fillColor=#f5f5f5;fontColor=#333333;" vertex="1" parent="1">
          <mxGeometry x="400" y="290" width="60" height="60" as="geometry" />
        </mxCell>
        <mxCell id="N_Zva5gIrNRZ_EKkjsPN-35" value="" style="html=1;verticalLabelPosition=bottom;align=center;labelBackgroundColor=#ffffff;verticalAlign=top;strokeWidth=2;strokeColor=#d6b656;shadow=0;dashed=0;shape=mxgraph.ios7.icons.data;fillColor=#fff2cc;" vertex="1" parent="1">
          <mxGeometry x="545" y="290" width="60" height="60" as="geometry" />
        </mxCell>
        <mxCell id="N_Zva5gIrNRZ_EKkjsPN-40" value="&lt;font&gt;Data Warehouse&lt;/font&gt;" style="rounded=0;whiteSpace=wrap;html=1;strokeColor=none;fontSize=14;" vertex="1" parent="1">
          <mxGeometry x="330" y="190" width="170" height="30" as="geometry" />
        </mxCell>
        <mxCell id="N_Zva5gIrNRZ_EKkjsPN-41" value="&lt;font&gt;Raw data&lt;/font&gt;" style="rounded=0;whiteSpace=wrap;html=1;strokeColor=none;fontSize=14;" vertex="1" parent="1">
          <mxGeometry x="220" y="360" width="100" height="30" as="geometry" />
        </mxCell>
        <mxCell id="N_Zva5gIrNRZ_EKkjsPN-42" value="&lt;font&gt;Cleaned, Standardized data&lt;/font&gt;" style="rounded=0;whiteSpace=wrap;html=1;strokeColor=none;fontSize=14;" vertex="1" parent="1">
          <mxGeometry x="360" y="360" width="130" height="30" as="geometry" />
        </mxCell>
        <mxCell id="N_Zva5gIrNRZ_EKkjsPN-43" value="&lt;font&gt;Raw data&lt;/font&gt;" style="rounded=0;whiteSpace=wrap;html=1;strokeColor=none;fontSize=14;" vertex="1" parent="1">
          <mxGeometry x="525" y="360" width="100" height="30" as="geometry" />
        </mxCell>
        <mxCell id="N_Zva5gIrNRZ_EKkjsPN-45" value="Object type : Table&lt;div&gt;&lt;span style=&quot;background-color: transparent; color: light-dark(rgb(0, 0, 0), rgb(255, 255, 255));&quot;&gt;Load:&lt;/span&gt;&lt;/div&gt;&lt;div&gt;&lt;ul&gt;&lt;li&gt;Batch Processing&lt;/li&gt;&lt;li&gt;Full Load&lt;/li&gt;&lt;/ul&gt;&lt;div&gt;No Tranformations&lt;/div&gt;&lt;/div&gt;&lt;div&gt;Data Model: None(as -is)&lt;/div&gt;" style="rounded=0;whiteSpace=wrap;html=1;strokeColor=none;fontSize=12;align=left;" vertex="1" parent="1">
          <mxGeometry x="210" y="400" width="130" height="170" as="geometry" />
        </mxCell>
        <mxCell id="N_Zva5gIrNRZ_EKkjsPN-49" value="Object type : Table&lt;div&gt;&lt;span style=&quot;background-color: transparent; color: light-dark(rgb(0, 0, 0), rgb(255, 255, 255));&quot;&gt;Load:&lt;/span&gt;&lt;/div&gt;&lt;div&gt;&lt;ul&gt;&lt;li&gt;Batch Processing&lt;/li&gt;&lt;li&gt;Full Load&lt;/li&gt;&lt;li&gt;Truncate &amp;amp; insert.&lt;/li&gt;&lt;/ul&gt;&lt;div&gt;Transformations:&lt;/div&gt;&lt;div&gt;&lt;ul&gt;&lt;li&gt;Data Cleansing&lt;/li&gt;&lt;li&gt;Data Standardization&lt;/li&gt;&lt;li&gt;Data Normalization&lt;/li&gt;&lt;li&gt;Derived Columns&lt;/li&gt;&lt;li&gt;Data Enrichment&lt;/li&gt;&lt;/ul&gt;&lt;div&gt;Data Model: None (as-is)&lt;/div&gt;&lt;/div&gt;&lt;div&gt;&lt;br&gt;&lt;/div&gt;&lt;/div&gt;" style="rounded=0;whiteSpace=wrap;html=1;strokeColor=none;fontSize=12;align=left;" vertex="1" parent="1">
          <mxGeometry x="350" y="390" width="150" height="260" as="geometry" />
        </mxCell>
        <mxCell id="N_Zva5gIrNRZ_EKkjsPN-52" value="Object type : Views&lt;div&gt;&lt;br&gt;&lt;/div&gt;&lt;div&gt;No Load&lt;/div&gt;&lt;div&gt;&lt;div&gt;Transformations:&lt;/div&gt;&lt;div&gt;&lt;ul&gt;&lt;li&gt;Data Integration&lt;/li&gt;&lt;li&gt;Aggregation&lt;/li&gt;&lt;li&gt;Business Logics&lt;/li&gt;&lt;li&gt;Derived Columns&lt;/li&gt;&lt;li&gt;Data Enrichment&lt;/li&gt;&lt;/ul&gt;&lt;div&gt;Data Model:&amp;nbsp;&lt;/div&gt;&lt;/div&gt;&lt;div&gt;&lt;ul&gt;&lt;li&gt;Star Schema&lt;/li&gt;&lt;li&gt;Flat table&lt;/li&gt;&lt;li&gt;Aggregated Table&lt;/li&gt;&lt;/ul&gt;&lt;/div&gt;&lt;div&gt;&lt;br&gt;&lt;/div&gt;&lt;/div&gt;" style="rounded=0;whiteSpace=wrap;html=1;strokeColor=none;fontSize=12;align=left;" vertex="1" parent="1">
          <mxGeometry x="510" y="390" width="150" height="260" as="geometry" />
        </mxCell>
        <mxCell id="N_Zva5gIrNRZ_EKkjsPN-54" value="" style="image;aspect=fixed;html=1;points=[];align=center;fontSize=12;image=img/lib/azure2/analytics/Power_BI_Embedded.svg;" vertex="1" parent="1">
          <mxGeometry x="724" y="260" width="51" height="68" as="geometry" />
        </mxCell>
        <mxCell id="N_Zva5gIrNRZ_EKkjsPN-56" value="" style="shadow=0;dashed=0;html=1;strokeColor=none;fillColor=#4495D1;labelPosition=center;verticalLabelPosition=bottom;verticalAlign=top;align=center;outlineConnect=0;shape=mxgraph.veeam.magnifying_glass;pointerEvents=1;" vertex="1" parent="1">
          <mxGeometry x="728.4" y="382.8" width="55.2" height="54.4" as="geometry" />
        </mxCell>
        <mxCell id="N_Zva5gIrNRZ_EKkjsPN-57" value="" style="editableCssRules=.*;html=1;shape=image;verticalLabelPosition=bottom;labelBackgroundColor=#ffffff;verticalAlign=top;aspect=fixed;imageAspect=0;image=data:image/svg+xml,PHN2ZyB4bWxucz0iaHR0cDovL3d3dy53My5vcmcvMjAwMC9zdmciIHhtbG5zOnY9Imh0dHBzOi8vdmVjdGEuaW8vbmFubyIgd2lkdGg9IjE2Ljk3OTk5OTU0MjIzNjMyOCIgaGVpZ2h0PSIyMCIgdmlld0JveD0iMCAwIDE2Ljk3OTk5OTU0MjIzNjMyOCAyMCI+JiN4YTsJPHN0eWxlIHR5cGU9InRleHQvY3NzIj4mI3hhOwkuc3Qwe2ZpbGw6IzY2OWRmNjt9JiN4YTsJLnN0MXtmaWxsOiM0Mjg1ZjQ7fSYjeGE7CS5zdDJ7ZmlsbDojYWVjYmZhO30mI3hhOwk8L3N0eWxlPiYjeGE7CTxnIGNsYXNzPSJzdDAiPiYjeGE7CQk8cGF0aCBkPSJNOC40OSAxMC4yOUwuMjQgNS4zNSA4LjQ5LjU4bDguMjQgNC42N3pNMS43NiA1LjM2bDYuNzIgNCA2LjcyLTQuMTEtNi43MS0zLjc4eiIvPiYjeGE7CQk8cGF0aCBkPSJNOC40OSAxOS40NEwuMjEgMTMuODkgOC40OSA5LjNsOC4xNSA0LjY0em0tNi44LTUuNWw2LjggNC41NiA2LjctNC41LTYuNy0zLjgyeiIvPiYjeGE7CTwvZz4mI3hhOwk8ZyBjbGFzcz0ic3QxIj4mI3hhOwkJPHBhdGggZD0iTS42MTMgNS41MDJsLjY3NS0uMzcxIDcuNDc3IDEzLjYtLjY3NS4zNzF6Ii8+JiN4YTsJCTxwYXRoIGQ9Ik04LjE5NCAxOC44MjZsNy4zMDEtMTMuNTU5LjY3OC4zNjUtNy4zMDEgMTMuNTU5ek0uNzE2IDEzLjY4N0w4LjA5Ni45MDRsLjY2Ny4zODUtNy4zOCAxMi43ODN6Ii8+JiN4YTsJCTxwYXRoIGQ9Ik04LjE5NCAxLjIxNGwuNjY5LS4zODEgNy40MDUgMTIuOTg3LS42NjkuMzgxeiIvPiYjeGE7CQk8cGF0aCBkPSJNOC4xMy45NmguNzdWMTguOWgtLjc3ek0uNTUgNS40M2guNzd2OC42NkguNTV6bTE0Ljk3LS4wOWguNzdWMTRoLS43N3oiLz4mI3hhOwk8L2c+JiN4YTsJPGcgY2xhc3M9InN0MiI+JiN4YTsJCTxjaXJjbGUgY3g9IjguNTIiIGN5PSIxLjA3IiByPSIxLjA3Ii8+JiN4YTsJCTxjaXJjbGUgY3g9IjE1LjkxIiBjeT0iNS4zNCIgcj0iMS4wNyIvPiYjeGE7CQk8Y2lyY2xlIGN4PSIxLjA3IiBjeT0iNS4zNCIgcj0iMS4wNyIvPiYjeGE7CQk8Y2lyY2xlIGN4PSI4LjUyIiBjeT0iOS45MyIgcj0iMS42OCIvPiYjeGE7CQk8Y2lyY2xlIGN4PSIxNS45MSIgY3k9IjEzLjk0IiByPSIxLjA3Ii8+JiN4YTsJCTxjaXJjbGUgY3g9IjEuMDciIGN5PSIxMy45NCIgcj0iMS4wNyIvPiYjeGE7CQk8Y2lyY2xlIGN4PSI4LjUyIiBjeT0iMTguOTMiIHI9IjEuMDciLz4mI3hhOwkJPHBhdGggZD0iTTguNDkgMTAuMjlMLjI0IDUuMzUgOC40OS41OGw4LjI0IDQuNjd6TTEuNzYgNS4zNmw2LjcyIDQgNi43Mi00LjExLTYuNzEtMy43OHoiLz4mI3hhOwkJPHBhdGggZD0iTTguNDkgMTkuNDRMLjIxIDEzLjg5IDguNDkgOS4zbDguMTUgNC42NHptLTYuOC01LjVsNi44IDQuNTYgNi43LTQuNS02LjctMy44MnoiLz4mI3hhOwkJPHBhdGggZD0iTS42MTMgNS41MDJsLjY3NS0uMzcxIDcuNDc3IDEzLjYtLjY3NS4zNzF6Ii8+JiN4YTsJCTxwYXRoIGQ9Ik04LjE5NCAxOC44MjZsNy4zMDEtMTMuNTU5LjY3OC4zNjUtNy4zMDEgMTMuNTU5ek0uNzE2IDEzLjY4N0w4LjA5Ni45MDRsLjY2Ny4zODUtNy4zOCAxMi43ODN6Ii8+JiN4YTsJCTxwYXRoIGQ9Ik04LjE5NCAxLjIxNGwuNjY5LS4zODEgNy40MDUgMTIuOTg3LS42NjkuMzgxeiIvPiYjeGE7CQk8cGF0aCBkPSJNOC4xMy45NmguNzdWMTguOWgtLjc3ek0uNTUgNS40M2guNzd2OC42NkguNTV6bTE0Ljk3LS4wOWguNzdWMTRoLS43N3oiLz4mI3hhOwk8L2c+JiN4YTsJPGcgY2xhc3M9InN0MCI+JiN4YTsJCTxjaXJjbGUgY3g9IjguNTIiIGN5PSIxLjA3IiByPSIxLjA3Ii8+JiN4YTsJCTxjaXJjbGUgY3g9IjE1LjkxIiBjeT0iNS4zNCIgcj0iMS4wNyIvPiYjeGE7CQk8Y2lyY2xlIGN4PSIxLjA3IiBjeT0iNS4zNCIgcj0iMS4wNyIvPiYjeGE7CQk8Y2lyY2xlIGN4PSI4LjUyIiBjeT0iOS45MyIgcj0iMS42OCIvPiYjeGE7CQk8Y2lyY2xlIGN4PSIxNS45MSIgY3k9IjEzLjk0IiByPSIxLjA3Ii8+JiN4YTsJCTxjaXJjbGUgY3g9IjEuMDciIGN5PSIxMy45NCIgcj0iMS4wNyIvPiYjeGE7CQk8Y2lyY2xlIGN4PSI4LjUyIiBjeT0iMTguOTMiIHI9IjEuMDciLz4mI3hhOwk8L2c+JiN4YTs8L3N2Zz4=;" vertex="1" parent="1">
          <mxGeometry x="732" y="513.53" width="48" height="56.47" as="geometry" />
        </mxCell>
        <mxCell id="N_Zva5gIrNRZ_EKkjsPN-58" value="BI and reporting" style="rounded=0;whiteSpace=wrap;html=1;strokeColor=none;fontSize=14;" vertex="1" parent="1">
          <mxGeometry x="700" y="330" width="110" height="30" as="geometry" />
        </mxCell>
        <mxCell id="N_Zva5gIrNRZ_EKkjsPN-60" value="Ad- Hoc SQL queries" style="rounded=0;whiteSpace=wrap;html=1;strokeColor=none;fontSize=14;" vertex="1" parent="1">
          <mxGeometry x="701" y="450" width="110" height="30" as="geometry" />
        </mxCell>
        <mxCell id="N_Zva5gIrNRZ_EKkjsPN-61" value="Machine Learning" style="rounded=0;whiteSpace=wrap;html=1;strokeColor=none;fontSize=14;" vertex="1" parent="1">
          <mxGeometry x="701" y="580" width="110" height="30" as="geometry" />
        </mxCell>
        <mxCell id="N_Zva5gIrNRZ_EKkjsPN-62" value="" style="sketch=0;outlineConnect=0;fontColor=#232F3E;gradientColor=none;fillColor=#C925D1;strokeColor=none;dashed=0;verticalLabelPosition=bottom;verticalAlign=top;align=center;html=1;fontSize=12;fontStyle=0;aspect=fixed;pointerEvents=1;shape=mxgraph.aws4.rds_mysql_instance;" vertex="1" parent="1">
          <mxGeometry x="210" y="162" width="38" height="38" as="geometry" />
        </mxCell>
      </root>
    </mxGraphModel>
  </diagram>
</mxfile>
